# xmcd
#
# Track frame offsets: 
#        150
#        30993
#        47611
#        82883
#        102059
#        158478
#
# Disc length: 2503 seconds
#
# Revision: 0
# Processed by: cddbd v1.5.2PL0 Copyright (c) Steve Scherf et al.
# Submitted via: ExactAudioCopy v0.95b3
#
DISCID=2f09c506
DTITLE=Jimi Hendrix  - Kick Out The Jams - Disc 6 - 157  FLAC
DYEAR=1900
DGENRE=
TTITLE0=Paint It, Black
TTITLE1=Blackbird
TTITLE2=Spill The Wine
TTITLE3=Mystery Train
TTITLE4=Mother Earth
TTITLE5=Tobacco Road
EXTD=
EXTT0=
EXTT1=
EXTT2=
EXTT3=
EXTT4=
EXTT5=
PLAYORDER=
